<?xml version="1.0" encoding="utf-8"?>
<!-- Generator: Adobe Illustrator 26.3.1, SVG Export Plug-In . SVG Version: 6.00 Build 0)  -->
<svg version="1.1" id="Layer_1" xmlns="http://www.w3.org/2000/svg" xmlns:xlink="http://www.w3.org/1999/xlink" x="0px" y="0px"
	 viewBox="0 0 35.8 18.9" style="enable-background:new 0 0 35.8 18.9;" xml:space="preserve">
<style type="text/css">
	.st0{fill:#BA9E72;}
</style>
<path class="st0" d="M28.1,18.8L28.1,18.8c0.5-0.4,0.9-0.9,1.3-1.4c1.5-1.8,2.8-3.7,4-5.7c0.9-1.4,1.6-2.9,2.3-4.4
	c0.1-0.2,0-0.3-0.2-0.3c-1.6-0.4-3.2-0.6-4.8-0.7c-2.1-0.1-4.1,0.1-6.2,0.4c-1.2,0.2-2.3,0.4-3.5,0.7c-0.2,0-0.4,0-0.3-0.3
	c0.2-0.8,0.3-1.7,0.3-2.6c0.1-1.4,0.1-2.9-0.1-4.3C21.1,0,21,0,20.9,0c-1.4,0.3-2.8,0.7-4.1,1.2c-2.1,0.8-4.1,1.8-6.1,3
	C8.9,5.2,7.2,6.4,5.6,7.7C5.4,7.9,5.2,8,5,8.3c0.4-0.2,0.7-0.4,1-0.7c1.2-0.8,2.5-1.5,3.9-2.2C11,5,12,4.6,13.1,4.2
	C14,3.9,15,3.7,15.9,3.5c0.5-0.1,1-0.3,1.5-0.3c0.3,0,0.4,0.1,0.4,0.4c0,0.4,0,0.8-0.1,1.1c-0.1,1.1-0.3,2.2-0.4,3.3
	c0,0.1,0,0.1-0.1,0.2c0,0.1-0.1,0.1-0.2,0.1c-0.8,0.2-1.6,0.5-2.3,0.7c-1.1,0.4-2.1,0.7-3.2,1.1c-1.2,0.5-2.4,1-3.6,1.5
	c-1.3,0.5-2.5,1.1-3.8,1.7C3,14,1.8,14.6,0.6,15.2c-0.2,0.1-0.4,0.2-0.6,0.4c0.1,0,0.2-0.1,0.3-0.1C1,15.3,1.7,15,2.4,14.8
	c2-0.6,4-1.3,6.1-1.8c2.1-0.5,4.3-1,6.4-1.5c1.6-0.3,3.1-0.5,4.7-0.8c1.4-0.2,2.9-0.4,4.3-0.4c2-0.1,4-0.2,6.1-0.1
	c0.2,0,0.3,0.1,0.3,0.3c0,0.5-0.1,1-0.1,1.6c-0.3,1.9-0.9,3.8-1.6,5.6C28.4,18.1,28.3,18.4,28.1,18.8z"/>
</svg>
