<svg width="659" height="348" viewBox="0 0 659 348" fill="none" xmlns="http://www.w3.org/2000/svg">
<path d="M517.218 346.442L518.672 347.39C526.363 338.33 534.138 329.334 541.724 320.211C569.013 287.218 593.765 252.207 615.769 215.478C631.714 189.339 645.905 162.171 658.249 134.152C659.787 130.634 659.029 129.517 655.362 128.527C626.659 120.864 597.151 116.621 567.452 115.886C529.493 114.827 491.519 117.324 454.025 123.344C432.469 126.715 411.061 130.823 389.757 135.458C385.543 136.364 383.078 135.985 384.279 130.823C387.523 115.276 389.524 99.4944 390.263 83.6292C392.118 57.1934 391.695 30.6472 388.999 4.28396C388.577 0.32302 387.018 0.0701944 383.626 0.660122C357.985 5.80548 332.796 12.9846 308.295 22.1293C269.557 36.8317 232.246 55.0479 196.828 76.55C163.872 96.1651 133.171 118.898 103.081 142.538C99.2883 145.508 95.053 148.395 92.5455 153.072C99.2041 149.785 104.746 144.834 110.899 140.936C133.85 126.163 157.677 112.795 182.246 100.906C201.679 92.0095 221.555 84.1124 241.794 77.2453C258.272 71.3882 275.845 68.5228 293.019 64.7304C302.395 62.6235 311.604 59.6107 321.402 59.6739C326.48 59.6739 328.924 61.6333 329.009 67.0059C329.107 74.051 328.677 81.0937 327.723 88.0747C325.131 108.49 322.392 128.864 319.864 149.343C319.859 150.705 319.398 152.027 318.554 153.097C317.71 154.166 316.531 154.922 315.207 155.242C300.92 159.624 286.676 164.049 272.474 168.684C252.667 175.173 232.965 181.936 213.58 189.584C191.103 198.433 168.747 207.507 146.509 216.805C123.204 226.56 100.152 236.989 77.4163 247.776C54.6802 258.564 32.6606 269.646 10.3671 280.728C6.93248 282.435 3.13964 283.783 0 287.849C2.50749 287.07 4.21428 286.648 5.68927 286.079C18.3321 281.613 30.701 276.725 43.407 272.659C80.4716 260.839 117.663 249.483 155.317 239.644C194.299 229.531 233.548 220.633 273.064 212.95C301.616 207.409 330.336 202.858 359.183 199.086C385.67 195.631 412.241 192.618 438.938 191.038C476.045 188.826 513.172 187.056 550.363 189.205C554.409 189.437 555.905 190.996 555.758 194.957C555.531 204.577 554.658 214.171 553.145 223.674C547.266 258.838 536.962 292.779 524.572 326.152C522.086 332.894 519.662 339.679 517.218 346.442Z" fill="url(#paint0_linear_141_25)"/>
<defs>
<linearGradient id="paint0_linear_141_25" x1="329.5" y1="0.42041" x2="329.5" y2="347.39" gradientUnits="userSpaceOnUse">
<stop stop-color="#A88A55"/>
<stop offset="1" stop-color="#3E331F"/>
</linearGradient>
</defs>
</svg>
